<svg data-v-423bf9ae="" xmlns="http://www.w3.org/2000/svg" viewBox="0 0 539 90" class="iconLeft"><!----><!----><!----><g data-v-423bf9ae="" id="cfbbe0d3-89c6-4b09-afe0-3eeb8528bbaf" fill="#221057" transform="matrix(6.396588325500488,0,0,6.396588325500488,107.12153625488281,-8.539443969726562)"><path d="M4.12 4.45L3.68 4.45Q3.65 5.33 3.65 6.22Q3.65 7.11 3.65 8.02L3.65 8.02L3.65 8.53L4.09 8.53Q5.21 8.53 5.73 7.95Q6.24 7.38 6.24 6.45L6.24 6.45Q6.24 5.49 5.73 4.97Q5.21 4.45 4.12 4.45L4.12 4.45ZM3.86 9.30L3.65 9.30Q3.65 9.95 3.65 10.64Q3.65 11.33 3.68 12.01L3.68 12.01L4.96 12.15L4.96 12.85L0.45 12.85L0.45 12.15L1.58 12.03Q1.61 11.16 1.61 10.28Q1.61 9.41 1.61 8.51L1.61 8.51L1.61 8.02Q1.61 7.14 1.61 6.27Q1.61 5.39 1.58 4.51L1.58 4.51L0.45 4.38L0.45 3.68L4.23 3.68Q5.28 3.68 6.02 3.88Q6.76 4.07 7.25 4.43Q7.73 4.79 7.95 5.29Q8.18 5.80 8.18 6.41L8.18 6.41Q8.18 6.96 7.99 7.48Q7.80 7.99 7.31 8.40Q6.82 8.81 5.99 9.05Q5.15 9.30 3.86 9.30L3.86 9.30ZM10.85 8.86L12.53 8.86Q13.03 8.86 13.22 8.65Q13.41 8.44 13.41 7.99L13.41 7.99Q13.41 7.32 13.13 6.95Q12.85 6.58 12.40 6.58L12.40 6.58Q12.17 6.58 11.91 6.69Q11.66 6.80 11.44 7.07Q11.23 7.34 11.07 7.78Q10.91 8.22 10.85 8.86L10.85 8.86ZM15.13 9.56L10.84 9.56Q10.88 10.81 11.44 11.39Q12.01 11.97 12.87 11.97L12.87 11.97Q13.48 11.97 13.88 11.70Q14.28 11.42 14.60 10.92L14.60 10.92L15.08 11.19Q14.80 12.11 14.03 12.59Q13.26 13.06 12.19 13.06L12.19 13.06Q11.44 13.06 10.81 12.82Q10.18 12.59 9.74 12.13Q9.30 11.68 9.05 11.01Q8.81 10.35 8.81 9.49L8.81 9.49Q8.81 8.69 9.07 8.04Q9.34 7.38 9.81 6.90Q10.28 6.41 10.92 6.15Q11.56 5.88 12.31 5.88L12.31 5.88Q12.98 5.88 13.52 6.10Q14.06 6.31 14.43 6.71Q14.81 7.10 15.01 7.64Q15.22 8.19 15.22 8.83L15.22 8.83Q15.22 9.23 15.13 9.56L15.13 9.56ZM18.23 8.86L19.91 8.86Q20.41 8.86 20.60 8.65Q20.79 8.44 20.79 7.99L20.79 7.99Q20.79 7.32 20.51 6.95Q20.23 6.58 19.78 6.58L19.78 6.58Q19.54 6.58 19.29 6.69Q19.04 6.80 18.82 7.07Q18.61 7.34 18.45 7.78Q18.28 8.22 18.23 8.86L18.23 8.86ZM22.51 9.56L18.21 9.56Q18.26 10.81 18.82 11.39Q19.39 11.97 20.24 11.97L20.24 11.97Q20.86 11.97 21.26 11.70Q21.66 11.42 21.98 10.92L21.98 10.92L22.46 11.19Q22.18 12.11 21.41 12.59Q20.64 13.06 19.57 13.06L19.57 13.06Q18.82 13.06 18.19 12.82Q17.56 12.59 17.11 12.13Q16.67 11.68 16.43 11.01Q16.18 10.35 16.18 9.49L16.18 9.49Q16.18 8.69 16.45 8.04Q16.72 7.38 17.18 6.90Q17.65 6.41 18.30 6.15Q18.94 5.88 19.68 5.88L19.68 5.88Q20.36 5.88 20.89 6.10Q21.43 6.31 21.81 6.71Q22.19 7.10 22.39 7.64Q22.60 8.19 22.60 8.83L22.60 8.83Q22.60 9.23 22.51 9.56L22.51 9.56ZM26.24 6.02L26.38 7.39Q26.77 6.68 27.27 6.28Q27.78 5.88 28.27 5.88L28.27 5.88Q28.56 5.88 28.88 6.06Q29.19 6.24 29.30 6.75L29.30 6.75Q29.30 7.21 29.04 7.50Q28.77 7.78 28.32 7.78L28.32 7.78Q27.78 7.78 27.24 7.21L27.24 7.21L27.22 7.18Q26.96 7.42 26.75 7.72Q26.53 8.02 26.38 8.41L26.38 8.41L26.38 9.91Q26.38 10.36 26.38 10.93Q26.38 11.51 26.39 12.03L26.39 12.03L27.45 12.24L27.45 12.85L23.60 12.85L23.60 12.24L24.46 12.07Q24.47 11.55 24.47 10.96Q24.47 10.36 24.47 9.91L24.47 9.91L24.47 9.10Q24.47 8.81 24.47 8.60Q24.47 8.39 24.46 8.20Q24.46 8.01 24.45 7.83Q24.44 7.66 24.43 7.45L24.43 7.45L23.49 7.32L23.49 6.79L26.03 5.88L26.24 6.02ZM35.92 10.14L37.03 10.14L36.89 12.85L29.64 12.85L29.64 12.15L30.77 12.03Q30.80 11.16 30.80 10.28Q30.80 9.41 30.80 8.51L30.80 8.51L30.80 8.02Q30.80 7.14 30.80 6.27Q30.80 5.39 30.77 4.51L30.77 4.51L29.64 4.38L29.64 3.68L34.08 3.68L34.08 4.38L32.87 4.51Q32.84 5.39 32.84 6.26Q32.84 7.13 32.84 8.02L32.84 8.02L32.84 8.51Q32.84 9.41 32.84 10.30Q32.84 11.19 32.87 12.08L32.87 12.08L35.53 12.08L35.92 10.14ZM41.27 6.58L41.27 6.58Q39.80 6.58 39.80 9.48L39.80 9.48Q39.80 10.96 40.17 11.66Q40.54 12.36 41.27 12.36L41.27 12.36Q42.01 12.36 42.38 11.66Q42.74 10.96 42.74 9.48L42.74 9.48Q42.74 6.58 41.27 6.58ZM41.27 5.88L41.27 5.88Q41.97 5.88 42.61 6.13Q43.25 6.38 43.74 6.85Q44.23 7.32 44.52 7.99Q44.81 8.65 44.81 9.49L44.81 9.49Q44.81 10.33 44.55 10.99Q44.28 11.65 43.81 12.11Q43.33 12.57 42.68 12.82Q42.03 13.06 41.27 13.06L41.27 13.06Q40.52 13.06 39.87 12.82Q39.21 12.57 38.75 12.11Q38.28 11.65 38.00 10.99Q37.73 10.33 37.73 9.49L37.73 9.49Q37.73 8.65 38.02 7.99Q38.30 7.32 38.79 6.85Q39.28 6.38 39.93 6.13Q40.57 5.88 41.27 5.88ZM49.67 11.61L49.67 9.24Q49.41 9.31 49.18 9.39Q48.94 9.46 48.78 9.53L48.78 9.53Q48.16 9.77 47.92 10.14Q47.68 10.50 47.68 10.95L47.68 10.95Q47.68 11.23 47.76 11.40Q47.84 11.56 47.95 11.68L47.95 11.68Q48.24 11.97 48.73 11.97L48.73 11.97Q48.96 11.97 49.17 11.89Q49.38 11.82 49.67 11.61L49.67 11.61ZM52.42 11.70L52.78 11.97Q52.50 12.54 52.14 12.77Q51.79 12.99 51.25 12.99L51.25 12.99Q50.68 12.99 50.30 12.77Q49.92 12.54 49.77 12.18L49.77 12.18Q49.29 12.61 48.85 12.84Q48.41 13.06 47.75 13.06L47.75 13.06Q46.91 13.06 46.39 12.63Q45.86 12.21 45.86 11.38L45.86 11.38Q45.86 11.06 45.97 10.75Q46.07 10.43 46.36 10.13Q46.65 9.83 47.15 9.55Q47.66 9.27 48.45 9.00L48.45 9.00Q48.69 8.92 49.01 8.83Q49.34 8.74 49.67 8.64L49.67 8.64L49.67 8.22Q49.67 7.34 49.41 6.96Q49.14 6.58 48.47 6.58L48.47 6.58Q48.36 6.58 48.25 6.59Q48.15 6.59 48.03 6.61L48.03 6.61L47.92 7.42Q47.85 7.97 47.59 8.23Q47.32 8.50 46.96 8.50L46.96 8.50Q46.63 8.50 46.40 8.30Q46.17 8.11 46.10 7.78L46.10 7.78Q46.20 6.96 46.98 6.42Q47.77 5.88 49.11 5.88L49.11 5.88Q49.77 5.88 50.24 6.03Q50.71 6.17 51.00 6.50Q51.30 6.83 51.44 7.37Q51.58 7.91 51.58 8.69L51.58 8.69L51.58 11.58Q51.58 11.80 51.66 11.94Q51.74 12.08 51.93 12.08L51.93 12.08Q52.07 12.08 52.15 12.00Q52.23 11.91 52.35 11.79L52.35 11.79L52.42 11.70ZM60.34 12.07L61.14 12.24L61.14 12.85L57.55 12.85L57.55 12.24L58.41 12.07Q58.42 11.55 58.42 10.96Q58.42 10.37 58.42 9.91L58.42 9.91L58.42 8.57Q58.42 7.77 58.25 7.40Q58.09 7.03 57.60 7.03L57.60 7.03Q57.19 7.03 56.80 7.25Q56.42 7.46 56.01 7.85L56.01 7.85L56.01 9.91Q56.01 10.36 56.01 10.96Q56.01 11.55 56.03 12.07L56.03 12.07L56.83 12.24L56.83 12.85L53.24 12.85L53.24 12.24L54.10 12.07Q54.11 11.54 54.11 10.95Q54.11 10.36 54.11 9.91L54.11 9.91L54.11 9.11Q54.11 8.82 54.11 8.60Q54.11 8.39 54.10 8.20Q54.10 8.01 54.09 7.83Q54.08 7.66 54.07 7.45L54.07 7.45L53.13 7.32L53.13 6.79L55.66 5.88L55.87 6.02L55.97 7.13Q56.27 6.79 56.52 6.56Q56.78 6.33 57.05 6.17Q57.32 6.02 57.60 5.95Q57.89 5.88 58.25 5.88L58.25 5.88Q59.26 5.88 59.79 6.48Q60.33 7.07 60.33 8.34L60.33 8.34L60.33 9.91Q60.33 10.37 60.33 10.97Q60.33 11.56 60.34 12.07L60.34 12.07ZM65.14 8.54L65.62 8.71Q66.16 8.90 66.53 9.13Q66.89 9.37 67.10 9.63Q67.31 9.90 67.40 10.20Q67.48 10.50 67.48 10.84L67.48 10.84Q67.48 11.34 67.27 11.75Q67.06 12.15 66.67 12.45Q66.28 12.74 65.73 12.90Q65.18 13.06 64.50 13.06L64.50 13.06Q63.77 13.06 63.22 12.89Q62.66 12.73 62.08 12.39L62.08 12.39L62.08 10.78L63.15 10.78L63.34 12.00Q63.66 12.18 63.93 12.26Q64.20 12.33 64.50 12.33L64.50 12.33Q65.17 12.33 65.48 12.11Q65.80 11.89 65.80 11.42L65.80 11.42Q65.80 11.23 65.74 11.08Q65.67 10.93 65.52 10.81Q65.37 10.68 65.11 10.56Q64.85 10.43 64.44 10.28L64.44 10.28L63.80 10.02Q62.96 9.70 62.53 9.19Q62.10 8.68 62.10 7.94L62.10 7.94Q62.10 7.01 62.81 6.45Q63.52 5.88 64.96 5.88L64.96 5.88Q65.59 5.88 66.08 6.02Q66.57 6.16 67.09 6.41L67.09 6.41L67.00 7.95L65.94 7.95L65.73 6.79Q65.55 6.72 65.35 6.66Q65.16 6.61 64.88 6.61L64.88 6.61Q64.37 6.61 64.06 6.84Q63.76 7.07 63.76 7.48L63.76 7.48Q63.76 7.63 63.81 7.76Q63.87 7.90 64.02 8.02Q64.18 8.15 64.45 8.27Q64.72 8.40 65.14 8.54L65.14 8.54Z"></path></g><defs data-v-423bf9ae=""><linearGradient data-v-423bf9ae="" gradientTransform="rotate(25)" id="d5cac6c0-83cc-4c10-b864-9f3d3e35b34b" x1="0%" y1="0%" x2="100%" y2="0%"><stop data-v-423bf9ae="" offset="0%" style="stop-color: rgb(146, 13, 233); stop-opacity: 1;"></stop><stop data-v-423bf9ae="" offset="100%" style="stop-color: rgb(21, 54, 241); stop-opacity: 1;"></stop></linearGradient></defs><g data-v-423bf9ae="" id="a5ca2a91-d667-4886-8382-c5fffabbb774" transform="matrix(2.8125,0,0,2.8125,0,0)" stroke="none" fill="url(#d5cac6c0-83cc-4c10-b864-9f3d3e35b34b)"><path d="M16 32c8.837 0 16-7.163 16-16S24.837 0 16 0 0 7.163 0 16s7.163 16 16 16zM14.817 6.421h2v8.886h8.887v2H14.817V6.421zm-5.959.437h2v14.283h14.283v2H8.858V6.858z"></path></g><!----></svg>